<svg version="1.1" id="Layer_1" xmlns="http://www.w3.org/2000/svg" xmlns:xlink="http://www.w3.org/1999/xlink" x="0px" y="0px"
	 width="100%" viewBox="0 0 547 547" enable-background="new 0 0 547 547" xml:space="preserve">
<path fill="#25A685" opacity="1.000000" stroke="none" 
	d="
M0.999999,533.000000 
	C1.000000,360.975098 1.000000,188.950180 1.281151,16.769012 
	C5.366488,10.684942 9.236040,4.824801 16.199373,2.060403 
	C16.263186,2.035070 16.072088,1.367648 16.000000,1.000000 
	C187.358231,1.000000 358.716461,1.000000 530.340576,1.347270 
	C537.671570,4.840705 543.678589,9.092598 546.513062,16.736238 
	C546.601624,16.975119 547.486389,16.918734 548.000000,17.000002 
	C548.000000,186.024902 548.000000,355.049805 547.772949,524.810913 
	C546.713013,528.725586 545.880127,531.904053 545.035278,535.048950 
	C545.023438,535.015381 545.090698,534.991821 544.876953,535.139099 
	C544.442505,535.550781 544.221680,535.815125 544.018311,536.041016 
	C544.035767,536.002502 544.112610,536.037659 543.777161,536.121399 
	C540.973389,538.842957 538.505066,541.480774 536.021118,544.079285 
	C536.005493,544.039978 536.084167,544.008972 535.854736,544.123901 
	C535.353394,544.447815 535.081421,544.656738 534.521606,545.080811 
	C533.489136,546.197266 532.744568,547.098633 532.000000,548.000000 
	C360.641754,548.000000 189.283524,548.000000 17.632519,547.651672 
	C11.005473,544.165588 5.424823,540.239197 2.539353,533.404724 
	C2.413392,533.106384 1.530360,533.127625 0.999999,533.000000 
M240.731277,43.161793 
	C233.246078,44.580997 225.625595,45.508232 218.303787,47.521633 
	C202.975723,51.736652 187.441971,55.595596 172.683655,61.367561 
	C160.707092,66.051582 149.832993,73.498077 138.304123,79.395195 
	C115.809296,90.901489 104.711403,118.321068 110.820351,141.657715 
	C114.006737,153.829926 121.023842,163.576080 133.690338,166.341965 
	C150.319443,169.973114 166.519028,174.495255 181.895615,181.793381 
	C203.493958,192.044464 223.325516,205.106018 241.245438,220.846863 
	C249.193542,227.828461 256.748596,235.578491 263.049225,244.045898 
	C275.065460,260.194489 290.766144,268.888672 310.514130,270.504395 
	C323.991119,271.607025 336.811188,268.251495 349.630219,264.330536 
	C367.244537,258.942902 383.873718,252.035553 398.627594,240.621307 
	C410.286530,231.601425 414.853699,220.539932 409.845154,206.620117 
	C407.932190,201.303574 404.618713,196.191086 400.901367,191.885300 
	C392.877991,182.591904 384.748749,173.243713 375.614899,165.092087 
	C364.134125,154.845886 351.642517,145.726410 339.497894,136.234879 
	C337.011902,134.291977 337.150818,132.460068 338.863678,130.336319 
	C340.124634,128.772812 341.530670,127.326279 343.398102,125.239906 
	C324.580048,127.470711 306.953552,129.560257 288.563538,131.740311 
	C295.752960,149.724487 302.655121,166.990082 309.554260,184.248123 
	C309.686127,184.161804 310.086945,184.049789 310.176178,183.817902 
	C311.125427,181.350891 312.038422,178.869598 312.936188,176.383133 
	C315.363983,169.659149 316.031555,169.015945 321.816406,173.111008 
	C330.439453,179.215256 338.546387,186.062729 346.729309,192.769241 
	C351.601959,196.762756 356.174683,201.120499 360.927277,205.262817 
	C366.845520,210.421082 366.408386,213.418472 359.485046,216.807358 
	C346.804169,223.014465 334.196381,229.003922 319.742126,230.428802 
	C311.601013,231.231354 304.519073,230.489685 298.896362,224.356430 
	C291.388824,216.167130 284.372040,207.523987 276.772614,199.424683 
	C273.287109,195.709900 268.899353,192.845947 264.949524,189.561539 
	C259.085205,184.685135 253.491791,179.442825 247.350525,174.947128 
	C229.295181,161.729813 209.692123,151.060944 189.329117,141.954590 
	C178.643234,137.175842 167.369537,133.557037 156.112244,130.266357 
	C148.956070,128.174500 147.409805,126.307442 151.049301,119.680855 
	C152.051651,117.855835 153.547546,116.007088 155.288589,114.935379 
	C161.640442,111.025444 167.897537,106.735809 174.729721,103.879395 
	C188.503983,98.120605 202.411331,92.481583 216.675446,88.148285 
	C231.236862,83.724670 246.231079,80.697243 261.703674,81.216850 
	C270.777496,81.521576 279.933868,80.584061 288.938446,81.428291 
	C300.256317,82.489403 311.873322,83.486221 322.609314,86.885567 
	C338.224640,91.829849 353.690491,97.870018 368.274445,105.299210 
	C389.271851,115.995438 407.087036,131.116135 422.589142,149.054398 
	C434.177185,162.463470 443.718231,176.986465 451.988098,192.655151 
	C467.110748,221.307602 473.186432,251.894379 473.163330,283.871033 
	C473.156311,293.578857 471.350372,303.285187 470.372375,312.992584 
	C469.100861,325.613220 466.350220,337.881287 461.212189,349.510162 
	C460.425568,351.290527 458.524902,352.578644 457.139465,354.094391 
	C455.742371,352.635040 454.027283,351.369812 452.998871,349.685364 
	C445.389221,337.221436 438.258545,324.448608 430.232025,312.263824 
	C427.021576,307.390015 422.500854,302.856689 417.581665,299.737274 
	C406.509827,292.716217 392.489197,298.463165 388.778168,311.788971 
	C386.181824,321.112061 385.683350,331.000397 383.858185,340.561890 
	C381.438049,353.240479 379.180939,365.990479 375.878296,378.451233 
	C370.454132,398.916626 362.238739,418.393280 353.009735,437.429688 
	C352.323456,438.845154 351.320862,440.107330 349.924286,442.284088 
	C348.585388,439.986176 347.503693,438.575378 346.883423,436.984650 
	C344.713654,431.420319 342.967773,425.678711 340.587219,420.210632 
	C329.050659,393.711487 318.538361,366.673798 305.351654,341.014862 
	C294.771667,320.428070 281.190369,301.338257 268.375671,281.957947 
	C255.163177,261.976044 239.920761,243.658279 222.455902,227.091660 
	C207.678833,213.074585 191.417068,201.780197 172.683212,193.780212 
	C159.439407,188.124680 145.720566,184.250565 131.546814,182.562103 
	C119.813522,181.164368 108.470985,184.600952 97.568840,188.757828 
	C81.982185,194.700851 68.991638,204.121429 62.149326,219.812378 
	C55.451530,235.171921 55.913017,251.612793 59.780598,267.323822 
	C64.569962,286.779327 77.842644,301.133575 93.566673,312.761475 
	C111.300995,325.875977 130.073532,337.595337 147.692230,350.854645 
	C162.774261,362.204895 177.390274,374.307220 191.213699,387.151733 
	C200.902618,396.154480 209.098129,406.809601 217.613510,417.016357 
	C224.853302,425.694122 231.181839,434.944824 233.812561,446.315125 
	C235.791153,454.866760 231.883698,463.058319 223.649689,466.026337 
	C214.148453,469.451080 204.413406,469.178986 194.715317,467.288116 
	C177.512512,463.934082 163.088165,454.263245 150.145447,443.648773 
	C133.740646,430.194946 119.766037,413.871216 108.270050,395.772461 
	C103.223808,387.827850 98.517609,379.667236 93.358696,371.109863 
	C82.448395,377.702515 72.055153,383.858765 61.870087,390.342072 
	C60.923050,390.944916 60.458069,394.199066 61.181515,395.249512 
	C72.943741,412.327728 84.289597,429.752502 97.043999,446.071686 
	C111.447121,464.500366 128.760086,479.834503 149.633179,491.168060 
	C169.464828,501.936157 189.870667,509.098633 212.769287,507.838562 
	C225.605011,507.132263 237.508118,503.996796 248.564957,497.209503 
	C263.438324,488.079468 271.135498,474.397705 273.452759,457.752319 
	C275.714203,441.508148 270.813965,426.614563 262.746307,412.514618 
	C252.589996,394.764313 239.140717,379.654877 225.038803,365.146393 
	C216.366882,356.224487 206.767014,348.183624 197.366364,339.996857 
	C188.117294,331.942078 179.009460,323.627502 169.093918,316.458344 
	C153.891373,305.466583 137.962158,295.485596 122.513901,284.825562 
	C113.886902,278.872528 105.779694,272.314758 100.780739,262.651337 
	C96.943993,255.234589 95.432945,247.501282 97.790489,239.542679 
	C101.026817,228.617477 115.333488,220.445801 127.638718,221.538284 
	C143.218796,222.921524 156.999817,228.945343 170.402527,236.625290 
	C188.183517,246.814087 202.456604,260.944672 215.227600,276.478577 
	C225.636246,289.139038 234.807877,302.856598 244.013779,316.453583 
	C251.898911,328.099823 259.663818,339.908691 266.372650,352.248657 
	C274.060516,366.389465 280.448151,381.233032 287.537415,395.704254 
	C301.102722,423.394806 310.495087,452.599976 319.260345,482.052856 
	C320.865479,487.446350 322.595306,492.966888 325.336395,497.825836 
	C332.174500,509.947449 344.702637,510.934570 352.898193,504.463928 
	C358.848206,499.766266 364.505005,494.248444 368.888336,488.095886 
	C384.718475,465.876343 395.902405,441.189545 405.064209,415.610535 
	C409.658661,402.783112 413.364502,389.638367 417.561890,376.666138 
	C417.914886,375.575165 418.950348,374.705017 419.668732,373.732269 
	C420.589264,374.581665 422.024811,375.269043 422.350800,376.305450 
	C425.684662,386.904114 428.990082,397.516846 431.989319,408.213745 
	C434.016327,415.443298 436.652863,421.861053 444.035522,425.445404 
	C451.150757,428.899902 464.206665,426.709412 468.290894,420.723602 
	C479.368011,404.488892 488.902679,387.508118 495.805450,368.963501 
	C503.323303,348.766235 508.797424,328.255249 511.199402,306.785828 
	C513.437195,286.783722 513.757690,266.808044 510.349915,247.083359 
	C504.891510,215.489502 494.946075,185.358276 478.329956,157.599045 
	C468.029358,140.390579 454.960052,125.422455 441.622620,110.709831 
	C435.091461,103.505241 427.453674,97.077293 419.518311,91.417206 
	C400.209259,77.644577 380.487213,64.772156 357.662872,56.824890 
	C329.930206,47.168575 301.819153,40.860329 272.428497,41.125275 
	C262.147186,41.217960 251.874817,42.306950 240.731277,43.161793 
M71.294426,368.737152 
	C79.718445,361.910248 81.661880,348.734070 74.777496,340.696533 
	C67.236679,331.892609 56.074524,329.820587 46.663048,336.174316 
	C36.702713,342.898651 34.817841,356.043121 41.856693,365.608795 
	C48.305843,374.373077 61.287640,375.956177 71.294426,368.737152 
z"/>
<path fill="#000000" opacity="1.000000" stroke="none" 
	d="
M548.000000,16.528805 
	C547.486389,16.918734 546.601624,16.975119 546.513062,16.736238 
	C543.678589,9.092598 537.671570,4.840705 530.803223,1.347270 
	C536.589539,1.000000 542.179077,1.000000 548.000000,1.000000 
	C548.000000,6.016859 548.000000,11.037231 548.000000,16.528805 
z"/>
<path fill="#000000" opacity="1.000000" stroke="none" 
	d="
M532.471191,548.000000 
	C532.744568,547.098633 533.489136,546.197266 534.824158,545.115723 
	C535.637817,544.626709 535.860962,544.317810 536.084167,544.008972 
	C536.084167,544.008972 536.005493,544.039978 536.384399,544.042480 
	C539.213135,541.375854 541.662842,538.706787 544.112610,536.037659 
	C544.112610,536.037659 544.035767,536.002502 544.296753,535.977661 
	C544.735474,535.632446 544.913086,535.312134 545.090698,534.991821 
	C545.090698,534.991821 545.023438,535.015381 545.351257,534.844971 
	C546.452698,533.783020 547.226379,532.891541 548.000000,532.000000 
	C548.000000,537.258423 548.000000,542.516846 548.000000,548.000000 
	C542.982300,548.000000 537.962341,548.000000 532.471191,548.000000 
z"/>
<path fill="#000000" opacity="1.000000" stroke="none" 
	d="
M0.999999,533.472656 
	C1.530360,533.127625 2.413392,533.106384 2.539353,533.404724 
	C5.424823,540.239197 11.005473,544.165588 17.169880,547.651672 
	C11.744535,548.000000 6.489071,548.000000 1.000000,548.000000 
	C1.000000,543.317627 1.000000,538.631470 0.999999,533.472656 
z"/>
<path fill="#000000" opacity="1.000000" stroke="none" 
	d="
M15.527336,1.000000 
	C16.072088,1.367648 16.263186,2.035070 16.199373,2.060403 
	C9.236040,4.824801 5.366488,10.684942 1.281151,16.306374 
	C1.000000,11.075478 1.000000,6.150956 1.000000,1.000000 
	C5.683317,1.000000 10.368995,1.000000 15.527336,1.000000 
z"/>
<path fill="#49A38A" opacity="1.000000" stroke="none" 
	d="
M548.000000,531.562500 
	C547.226379,532.891541 546.452698,533.783020 545.363159,534.878540 
	C545.880127,531.904053 546.713013,528.725586 547.772949,525.273560 
	C548.000000,527.041687 548.000000,529.083313 548.000000,531.562500 
z"/>
<path fill="#E7EBEA" opacity="1.000000" stroke="none" 
	d="
M241.164825,43.051380 
	C251.874817,42.306950 262.147186,41.217960 272.428497,41.125275 
	C301.819153,40.860329 329.930206,47.168575 357.662872,56.824890 
	C380.487213,64.772156 400.209259,77.644577 419.518311,91.417206 
	C427.453674,97.077293 435.091461,103.505241 441.622620,110.709831 
	C454.960052,125.422455 468.029358,140.390579 478.329956,157.599045 
	C494.946075,185.358276 504.891510,215.489502 510.349915,247.083359 
	C513.757690,266.808044 513.437195,286.783722 511.199402,306.785828 
	C508.797424,328.255249 503.323303,348.766235 495.805450,368.963501 
	C488.902679,387.508118 479.368011,404.488892 468.290894,420.723602 
	C464.206665,426.709412 451.150757,428.899902 444.035522,425.445404 
	C436.652863,421.861053 434.016327,415.443298 431.989319,408.213745 
	C428.990082,397.516846 425.684662,386.904114 422.350800,376.305450 
	C422.024811,375.269043 420.589264,374.581665 419.668762,373.732300 
	C418.950348,374.705017 417.914886,375.575165 417.561890,376.666138 
	C413.364502,389.638367 409.658661,402.783112 405.064209,415.610535 
	C395.902405,441.189545 384.718475,465.876343 368.888336,488.095886 
	C364.505005,494.248444 358.848206,499.766266 352.898193,504.463928 
	C344.702637,510.934570 332.174500,509.947449 325.336395,497.825836 
	C322.595306,492.966888 320.865479,487.446350 319.260345,482.052856 
	C310.495087,452.599976 301.102722,423.394806 287.537415,395.704254 
	C280.448151,381.233032 274.060516,366.389465 266.372650,352.248657 
	C259.663818,339.908691 251.898911,328.099823 244.013779,316.453583 
	C234.807877,302.856598 225.636246,289.139038 215.227600,276.478577 
	C202.456604,260.944672 188.183517,246.814087 170.402527,236.625290 
	C156.999817,228.945343 143.218796,222.921524 127.638718,221.538284 
	C115.333488,220.445801 101.026817,228.617477 97.790489,239.542679 
	C95.432945,247.501282 96.943993,255.234589 100.780739,262.651337 
	C105.779694,272.314758 113.886902,278.872528 122.513901,284.825562 
	C137.962158,295.485596 153.891373,305.466583 169.093918,316.458344 
	C179.009460,323.627502 188.117294,331.942078 197.366364,339.996857 
	C206.767014,348.183624 216.366882,356.224487 225.038803,365.146393 
	C239.140717,379.654877 252.589996,394.764313 262.746307,412.514618 
	C270.813965,426.614563 275.714203,441.508148 273.452759,457.752319 
	C271.135498,474.397705 263.438324,488.079468 248.564957,497.209503 
	C237.508118,503.996796 225.605011,507.132263 212.769287,507.838562 
	C189.870667,509.098633 169.464828,501.936157 149.633179,491.168060 
	C128.760086,479.834503 111.447121,464.500366 97.043999,446.071686 
	C84.289597,429.752502 72.943741,412.327728 61.181515,395.249512 
	C60.458069,394.199066 60.923050,390.944916 61.870087,390.342072 
	C72.055153,383.858765 82.448395,377.702515 93.358696,371.109863 
	C98.517609,379.667236 103.223808,387.827850 108.270050,395.772461 
	C119.766037,413.871216 133.740646,430.194946 150.145447,443.648773 
	C163.088165,454.263245 177.512512,463.934082 194.715317,467.288116 
	C204.413406,469.178986 214.148453,469.451080 223.649689,466.026337 
	C231.883698,463.058319 235.791153,454.866760 233.812561,446.315125 
	C231.181839,434.944824 224.853302,425.694122 217.613510,417.016357 
	C209.098129,406.809601 200.902618,396.154480 191.213699,387.151733 
	C177.390274,374.307220 162.774261,362.204895 147.692230,350.854645 
	C130.073532,337.595337 111.300995,325.875977 93.566673,312.761475 
	C77.842644,301.133575 64.569962,286.779327 59.780598,267.323822 
	C55.913017,251.612793 55.451530,235.171921 62.149326,219.812378 
	C68.991638,204.121429 81.982185,194.700851 97.568840,188.757828 
	C108.470985,184.600952 119.813522,181.164368 131.546814,182.562103 
	C145.720566,184.250565 159.439407,188.124680 172.683212,193.780212 
	C191.417068,201.780197 207.678833,213.074585 222.455902,227.091660 
	C239.920761,243.658279 255.163177,261.976044 268.375671,281.957947 
	C281.190369,301.338257 294.771667,320.428070 305.351654,341.014862 
	C318.538361,366.673798 329.050659,393.711487 340.587219,420.210632 
	C342.967773,425.678711 344.713654,431.420319 346.883423,436.984650 
	C347.503693,438.575378 348.585388,439.986176 349.924286,442.284088 
	C351.320862,440.107330 352.323456,438.845154 353.009735,437.429688 
	C362.238739,418.393280 370.454132,398.916626 375.878296,378.451233 
	C379.180939,365.990479 381.438049,353.240479 383.858185,340.561890 
	C385.683350,331.000397 386.181824,321.112061 388.778168,311.788971 
	C392.489197,298.463165 406.509827,292.716217 417.581665,299.737274 
	C422.500854,302.856689 427.021576,307.390015 430.232025,312.263824 
	C438.258545,324.448608 445.389221,337.221436 452.998871,349.685364 
	C454.027283,351.369812 455.742371,352.635040 457.139465,354.094421 
	C458.524902,352.578644 460.425568,351.290527 461.212189,349.510162 
	C466.350220,337.881287 469.100861,325.613220 470.372375,312.992584 
	C471.350372,303.285187 473.156311,293.578857 473.163330,283.871033 
	C473.186432,251.894379 467.110748,221.307602 451.988098,192.655151 
	C443.718231,176.986465 434.177185,162.463470 422.589142,149.054398 
	C407.087036,131.116135 389.271851,115.995438 368.274445,105.299210 
	C353.690491,97.870018 338.224640,91.829849 322.609314,86.885567 
	C311.873322,83.486221 300.256317,82.489403 288.938446,81.428291 
	C279.933868,80.584061 270.777496,81.521576 261.703674,81.216850 
	C246.231079,80.697243 231.236862,83.724670 216.675446,88.148285 
	C202.411331,92.481583 188.503983,98.120605 174.729721,103.879395 
	C167.897537,106.735809 161.640442,111.025444 155.288589,114.935379 
	C153.547546,116.007088 152.051651,117.855835 151.049301,119.680855 
	C147.409805,126.307442 148.956070,128.174500 156.112244,130.266357 
	C167.369537,133.557037 178.643234,137.175842 189.329117,141.954590 
	C209.692123,151.060944 229.295181,161.729813 247.350525,174.947128 
	C253.491791,179.442825 259.085205,184.685135 264.949524,189.561539 
	C268.899353,192.845947 273.287109,195.709900 276.772614,199.424683 
	C284.372040,207.523987 291.388824,216.167130 298.896362,224.356430 
	C304.519073,230.489685 311.601013,231.231354 319.742126,230.428802 
	C334.196381,229.003922 346.804169,223.014465 359.485046,216.807358 
	C366.408386,213.418472 366.845520,210.421082 360.927277,205.262817 
	C356.174683,201.120499 351.601959,196.762756 346.729309,192.769241 
	C338.546387,186.062729 330.439453,179.215256 321.816406,173.111008 
	C316.031555,169.015945 315.363983,169.659149 312.936188,176.383133 
	C312.038422,178.869598 311.125427,181.350891 310.176178,183.817902 
	C310.086945,184.049789 309.686127,184.161804 309.554260,184.248123 
	C302.655121,166.990082 295.752960,149.724487 288.563538,131.740311 
	C306.953552,129.560257 324.580048,127.470711 343.398102,125.239906 
	C341.530670,127.326279 340.124634,128.772812 338.863678,130.336319 
	C337.150818,132.460068 337.011902,134.291977 339.497894,136.234879 
	C351.642517,145.726410 364.134125,154.845886 375.614899,165.092087 
	C384.748749,173.243713 392.877991,182.591904 400.901367,191.885300 
	C404.618713,196.191086 407.932190,201.303574 409.845154,206.620117 
	C414.853699,220.539932 410.286530,231.601425 398.627594,240.621307 
	C383.873718,252.035553 367.244537,258.942902 349.630219,264.330536 
	C336.811188,268.251495 323.991119,271.607025 310.514130,270.504395 
	C290.766144,268.888672 275.065460,260.194489 263.049225,244.045898 
	C256.748596,235.578491 249.193542,227.828461 241.245438,220.846863 
	C223.325516,205.106018 203.493958,192.044464 181.895615,181.793381 
	C166.519028,174.495255 150.319443,169.973114 133.690338,166.341965 
	C121.023842,163.576080 114.006737,153.829926 110.820351,141.657715 
	C104.711403,118.321068 115.809296,90.901489 138.304123,79.395195 
	C149.832993,73.498077 160.707092,66.051582 172.683655,61.367561 
	C187.441971,55.595596 202.975723,51.736652 218.303787,47.521633 
	C225.625595,45.508232 233.246078,44.580997 241.164825,43.051380 
z"/>
<path fill="#E4E9E7" opacity="1.000000" stroke="none" 
	d="
M70.992050,368.931030 
	C61.287640,375.956177 48.305843,374.373077 41.856693,365.608795 
	C34.817841,356.043121 36.702713,342.898651 46.663048,336.174316 
	C56.074524,329.820587 67.236679,331.892609 74.777496,340.696533 
	C81.661880,348.734070 79.718445,361.910248 70.992050,368.931030 
z"/>
<path fill="#49A38A" opacity="1.000000" stroke="none" 
	d="
M543.777161,536.121399 
	C541.662842,538.706787 539.213135,541.375854 536.400024,544.081787 
	C538.505066,541.480774 540.973389,538.842957 543.777161,536.121399 
z"/>
<path fill="#49A38A" opacity="1.000000" stroke="none" 
	d="
M544.876953,535.139099 
	C544.913086,535.312134 544.735474,535.632446 544.279297,536.016113 
	C544.221680,535.815125 544.442505,535.550781 544.876953,535.139099 
z"/>
<path fill="#49A38A" opacity="1.000000" stroke="none" 
	d="
M535.854736,544.123901 
	C535.860962,544.317810 535.637817,544.626709 535.112061,544.900635 
	C535.081421,544.656738 535.353394,544.447815 535.854736,544.123901 
z"/>
</svg>